<mxfile host="drawio-plugin" modified="2025-05-23T19:45:43.227Z" agent="5.0 (Macintosh; Intel Mac OS X 10_15_7) AppleWebKit/537.36 (KHTML, like Gecko) Chrome/111.0.0.0 Safari/537.36" etag="G1-zkQeu_IwX076PelV5" version="20.5.3" type="embed"><diagram name="Page-1" id="diagram"><mxGraphModel dx="626" dy="704" grid="1" gridSize="10" guides="1" tooltips="1" connect="1" arrows="1" fold="1" page="1" pageScale="1" pageWidth="827" pageHeight="1169" background="#F1FAEE" math="0" shadow="0"><root><mxCell id="0"/><mxCell id="1" parent="0"/><mxCell id="2" value="User Input&lt;br&gt;(In the interface)" style="rounded=1;whiteSpace=wrap;html=1;fillColor=#A8DADC;strokeColor=#457B9D;fontColor=#000000;" parent="1" vertex="1"><mxGeometry x="380" y="510" width="120" height="60" as="geometry"/></mxCell><mxCell id="3" value="Search Engine&#10;(Ranked_search.py)" style="rounded=1;whiteSpace=wrap;html=1;fillColor=#A8DADC;strokeColor=#457B9D;fontColor=#000000;" parent="1" vertex="1"><mxGeometry x="100" y="400" width="160" height="60" as="geometry"/></mxCell><mxCell id="5" value="Inverted Index&#10;(Inverted_Index.py)" style="rounded=1;whiteSpace=wrap;html=1;fillColor=#A8DADC;strokeColor=#457B9D;fontColor=#000000;" parent="1" vertex="1"><mxGeometry x="100" y="300" width="160" height="60" as="geometry"/></mxCell><mxCell id="6" value="&lt;font color=&quot;#000000&quot;&gt;Output&lt;br&gt;(GUI&lt;span style=&quot;font-family: &amp;quot;.AppleSystemUIFont&amp;quot;; font-size: 9.8pt;&quot;&gt;.py&lt;/span&gt;)&lt;/font&gt;" style="rounded=1;whiteSpace=wrap;html=1;fillColor=#A8DADC;fontColor=#1D3557;strokeColor=#457B9D;" parent="1" vertex="1"><mxGeometry x="100" y="510" width="160" height="60" as="geometry"/></mxCell><mxCell id="8" value="dataset_2_posts.sql" style="shape=document;whiteSpace=wrap;html=1;fillColor=#A8DADC;strokeColor=#457B9D;fontColor=#000000;" parent="1" vertex="1"><mxGeometry x="510" y="300" width="120" height="60" as="geometry"/></mxCell><mxCell id="9" value="Save" style="rounded=1;whiteSpace=wrap;html=1;fillColor=#A8DADC;strokeColor=#457B9D;fontColor=#000000;" parent="1" vertex="1"><mxGeometry x="65" y="650" width="100" height="50" as="geometry"/></mxCell><mxCell id="10" value="Load" style="rounded=1;whiteSpace=wrap;html=1;fillColor=#A8DADC;strokeColor=#457B9D;fontColor=#000000;" parent="1" vertex="1"><mxGeometry x="195" y="650" width="100" height="50" as="geometry"/></mxCell><mxCell id="18" style="edgeStyle=orthogonalEdgeStyle;rounded=0;fillColor=#A8DADC;strokeColor=#457B9D;strokeWidth=2;labelBackgroundColor=#F1FAEE;fontColor=#1D3557;entryX=0.5;entryY=1;entryDx=0;entryDy=0;" parent="1" source="9" target="6" edge="1"><mxGeometry relative="1" as="geometry"><mxPoint x="580" y="480" as="targetPoint"/></mxGeometry></mxCell><mxCell id="19" style="edgeStyle=orthogonalEdgeStyle;rounded=0;fillColor=#A8DADC;strokeColor=#457B9D;strokeWidth=2;labelBackgroundColor=#F1FAEE;fontColor=#1D3557;entryX=0.5;entryY=1;entryDx=0;entryDy=0;" parent="1" source="10" target="6" edge="1"><mxGeometry relative="1" as="geometry"><mxPoint x="600" y="240" as="targetPoint"/></mxGeometry></mxCell><mxCell id="32" value="Data Cleaner&lt;br&gt;(Data_Cleaner.py)" style="rounded=1;whiteSpace=wrap;html=1;fillColor=#A8DADC;strokeColor=#457B9D;fontColor=#000000;" parent="1" vertex="1"><mxGeometry x="110" y="190" width="160" height="60" as="geometry"/></mxCell><mxCell id="34" value="DB&#10;(Database_Manager.py)" style="rounded=1;whiteSpace=wrap;html=1;fillColor=#A8DADC;strokeColor=#457B9D;fontColor=#000000;" parent="1" vertex="1"><mxGeometry x="320" y="300" width="160" height="60" as="geometry"/></mxCell><mxCell id="38" style="edgeStyle=orthogonalEdgeStyle;rounded=0;fillColor=#A8DADC;strokeColor=#457B9D;strokeWidth=2;labelBackgroundColor=#F1FAEE;fontColor=#1D3557;exitX=0;exitY=0.5;exitDx=0;exitDy=0;entryX=1;entryY=0.5;entryDx=0;entryDy=0;" edge="1" parent="1" source="2" target="6"><mxGeometry relative="1" as="geometry"><mxPoint x="450" y="240" as="sourcePoint"/><mxPoint x="300" y="280" as="targetPoint"/></mxGeometry></mxCell><mxCell id="39" style="edgeStyle=orthogonalEdgeStyle;rounded=0;fillColor=#A8DADC;strokeColor=#457B9D;strokeWidth=2;labelBackgroundColor=#F1FAEE;fontColor=#1D3557;entryX=0.5;entryY=1;entryDx=0;entryDy=0;exitX=0.5;exitY=0;exitDx=0;exitDy=0;" edge="1" parent="1" source="6" target="3"><mxGeometry relative="1" as="geometry"><mxPoint x="190" y="580" as="targetPoint"/><mxPoint x="255" y="660" as="sourcePoint"/></mxGeometry></mxCell><mxCell id="40" style="edgeStyle=orthogonalEdgeStyle;rounded=0;fillColor=#A8DADC;strokeColor=#457B9D;strokeWidth=2;labelBackgroundColor=#F1FAEE;fontColor=#1D3557;entryX=0.5;entryY=1;entryDx=0;entryDy=0;exitX=0.5;exitY=0;exitDx=0;exitDy=0;" edge="1" parent="1" source="3" target="5"><mxGeometry relative="1" as="geometry"><mxPoint x="190" y="470" as="targetPoint"/><mxPoint x="190" y="520" as="sourcePoint"/></mxGeometry></mxCell><mxCell id="41" value="MySQL Sever" style="rounded=1;whiteSpace=wrap;html=1;fillColor=#A8DADC;strokeColor=#457B9D;fontColor=#000000;" vertex="1" parent="1"><mxGeometry x="320" y="190" width="160" height="60" as="geometry"/></mxCell><mxCell id="43" style="edgeStyle=orthogonalEdgeStyle;rounded=0;fillColor=#A8DADC;strokeColor=#457B9D;strokeWidth=2;labelBackgroundColor=#F1FAEE;fontColor=#1D3557;entryX=0;entryY=0.5;entryDx=0;entryDy=0;" edge="1" parent="1" target="34"><mxGeometry relative="1" as="geometry"><mxPoint x="190" y="370" as="targetPoint"/><mxPoint x="260" y="330" as="sourcePoint"/></mxGeometry></mxCell><mxCell id="44" style="edgeStyle=orthogonalEdgeStyle;rounded=0;fillColor=#A8DADC;strokeColor=#457B9D;strokeWidth=2;labelBackgroundColor=#F1FAEE;fontColor=#1D3557;entryX=0.5;entryY=1;entryDx=0;entryDy=0;endArrow=classic;endFill=1;startArrow=classicThin;startFill=1;" edge="1" parent="1" target="41"><mxGeometry relative="1" as="geometry"><mxPoint x="330" y="340" as="targetPoint"/><mxPoint x="400" y="300" as="sourcePoint"/></mxGeometry></mxCell><mxCell id="45" style="edgeStyle=orthogonalEdgeStyle;rounded=0;fillColor=#A8DADC;strokeColor=#457B9D;strokeWidth=2;labelBackgroundColor=#F1FAEE;fontColor=#1D3557;entryX=1;entryY=0.5;entryDx=0;entryDy=0;exitX=0;exitY=0.5;exitDx=0;exitDy=0;" edge="1" parent="1" source="8" target="34"><mxGeometry relative="1" as="geometry"><mxPoint x="190" y="370" as="targetPoint"/><mxPoint x="190" y="410" as="sourcePoint"/></mxGeometry></mxCell><mxCell id="46" style="edgeStyle=orthogonalEdgeStyle;rounded=0;fillColor=#A8DADC;strokeColor=#457B9D;strokeWidth=2;labelBackgroundColor=#F1FAEE;fontColor=#1D3557;entryX=0.25;entryY=0;entryDx=0;entryDy=0;exitX=0.5;exitY=1;exitDx=0;exitDy=0;" edge="1" parent="1" source="32" target="34"><mxGeometry relative="1" as="geometry"><mxPoint x="330" y="340" as="targetPoint"/><mxPoint x="270" y="340" as="sourcePoint"/></mxGeometry></mxCell><mxCell id="47" style="edgeStyle=orthogonalEdgeStyle;rounded=0;fillColor=#A8DADC;strokeColor=#457B9D;strokeWidth=2;labelBackgroundColor=#F1FAEE;fontColor=#1D3557;entryX=1;entryY=0.5;entryDx=0;entryDy=0;endArrow=classic;endFill=1;startArrow=classicThin;startFill=1;exitX=0.5;exitY=0;exitDx=0;exitDy=0;" edge="1" parent="1" source="8" target="41"><mxGeometry relative="1" as="geometry"><mxPoint x="410" y="260" as="targetPoint"/><mxPoint x="410" y="310" as="sourcePoint"/></mxGeometry></mxCell></root></mxGraphModel></diagram></mxfile>